<svg width="980" height="240" viewBox="0 0 980 240" xmlns="http://www.w3.org/2000/svg" fill="none">
  <defs>
    <linearGradient id="markBg" x1="0" y1="0" x2="240" y2="240" gradientUnits="userSpaceOnUse">
      <stop stop-color="#E2E8F0"/>
      <stop offset="1" stop-color="#CBD5E1"/>
    </linearGradient>
    <linearGradient id="markAccent" x1="0" y1="0" x2="1" y2="1">
      <stop stop-color="#F59E0B"/>
      <stop offset="1" stop-color="#EF4444"/>
    </linearGradient>
  </defs>

  <g transform="translate(18,18)">
    <path d="M102 0C140 18 169 18 204 0V76C204 141 162 189 102 204C42 189 0 141 0 76V0C35 18 64 18 102 0Z" fill="url(#markBg)"/>
    <path d="M102 20C132 33 154 33 178 21V76C178 127 146 165 102 178C58 165 26 127 26 76V21C50 33 72 33 102 20Z" fill="#F8FAFC" stroke="#94A3B8"/>
    <path d="M58 94c0-26 20-45 44-45 11 0 21 5 28 13 7-8 17-13 28-13 24 0 44 19 44 45 0 32-30 53-72 77-42-24-72-45-72-77Z" fill="#0F172A"/>
    <circle cx="84" cy="66" r="8" fill="url(#markAccent)"/>
    <circle cx="120" cy="66" r="8" fill="url(#markAccent)"/>
    <path d="M92 104c8 7 20 7 28 0" stroke="#E2E8F0" stroke-width="5" stroke-linecap="round"/>
  </g>

  <text x="250" y="96" font-family="Inter,Segoe UI,Arial,sans-serif" font-size="62" font-weight="800" fill="#F8FAFC" letter-spacing="-1.2">French Bulldog</text>
  <text x="250" y="162" font-family="Inter,Segoe UI,Arial,sans-serif" font-size="54" font-weight="650" fill="#CBD5E1" letter-spacing="-0.5">Rescue South Africa</text>
  <text x="252" y="199" font-family="Inter,Segoe UI,Arial,sans-serif" font-size="20" font-weight="600" fill="#94A3B8">Safe surrender • Ethical rehoming • Trusted rescue network</text>
  <rect x="252" y="212" width="368" height="8" rx="4" fill="url(#markAccent)"/>
</svg>